<svg width="207" height="44" viewBox="0 0 207 44" fill="none" xmlns="http://www.w3.org/2000/svg">
<path d="M32.0257 30.2131C32.7257 23.1631 49.8257 4.66308 51.9757 4.11309C48.6257 8.21308 41.2257 19.5131 41.2257 26.0631C41.2257 28.5631 42.3257 30.3631 45.0757 30.8631C44.9757 30.4131 44.9257 29.9631 44.9257 29.4631C44.9257 21.9131 56.7257 5.16308 59.8757 1.66308C59.1757 0.663085 58.0257 0.163085 56.7257 0.163085C49.2757 0.163085 37.3757 15.9631 33.0757 22.7131C35.7257 16.3631 42.3757 7.06308 42.3757 3.06308C42.3757 1.21308 41.3257 0.0630838 40.2757 0.0630838C28.1757 0.0630838 15.8257 31.8131 6.92568 31.8131C4.57568 31.8131 3.27568 30.1631 3.27568 28.3131C3.27568 24.7631 7.12568 19.9631 11.5757 19.9631C13.1257 19.9631 14.7257 20.5631 16.2757 21.9631C16.4757 21.3131 16.5757 20.7631 16.5757 20.2131C16.5757 17.7131 13.9757 16.3631 11.3757 16.3631C7.87568 16.3631 0.0756836 20.7131 0.0756836 27.2631C0.0756836 31.0131 3.27568 33.9631 7.62568 33.9631C20.7757 33.9631 26.7257 8.26309 38.6257 2.76308C35.4757 7.96308 27.8757 17.9631 27.8757 24.5631C27.8757 27.1131 29.0257 29.1631 32.0257 30.2131ZM62.5233 14.7131C62.5733 14.7631 62.5733 14.8631 62.5733 14.9631C62.5733 16.4631 59.1233 19.4131 57.7233 20.0131C59.5733 17.0631 61.7233 14.5631 62.3733 14.5631C62.4733 14.5631 62.5233 14.6131 62.5233 14.7131ZM56.0733 22.9631C59.3233 22.4631 64.6233 18.7631 64.6233 15.5131C64.6233 14.0631 63.1233 12.4131 61.3233 12.4131C60.0733 12.4131 58.7233 13.0631 57.7233 13.7131C53.5233 16.2631 50.7733 21.5631 50.7733 25.6631C50.7733 28.7631 52.3733 31.2131 56.3233 31.2131C59.9233 31.2131 63.6233 28.0631 67.2233 21.9631C67.5733 21.3131 67.7233 20.7631 67.7233 20.3631C67.7233 19.7631 67.4233 19.4131 67.0233 19.4131C66.7233 19.4131 66.4233 19.8131 66.0233 20.2131C61.9233 26.6131 58.8233 28.9131 56.8233 28.9131C55.3733 28.9131 54.8233 28.2131 54.8233 27.0631C54.8233 25.9631 55.3233 24.5131 56.0733 22.9631ZM58.7511 33.2631C56.8011 36.5131 54.2511 40.9631 51.7511 40.9631C51.2011 40.9631 50.9011 40.5631 50.9011 39.9631C50.9011 38.3131 53.1011 35.0131 58.7511 33.2631ZM49.0511 39.8631C49.0511 41.7631 50.2511 43.5631 52.8511 43.5631C57.1011 43.5631 61.6511 38.1131 65.4011 31.3131C70.2511 29.7131 75.0011 27.4631 78.3511 20.9131C78.4011 20.7631 78.4511 20.5631 78.4511 20.4131C78.4511 19.9131 78.0511 19.3631 77.4011 19.3631C77.0511 19.3631 76.7011 19.5631 76.5011 19.9131C73.5511 25.3631 70.6011 26.9631 66.9511 28.5131C70.6511 21.4131 73.7011 14.4631 75.6511 14.4631H75.7011C75.7011 14.4631 75.7511 14.4631 75.7511 14.4131C75.7511 14.1131 74.6511 12.6631 72.8511 12.6631C71.8511 12.6631 70.6511 13.1131 69.2511 14.4631C67.5011 16.1631 62.4511 26.5631 60.2011 30.6631C55.7511 31.9131 49.0511 34.7631 49.0511 39.8631ZM73.5511 8.01308C73.5511 9.36308 74.7011 10.5131 76.0511 10.5131C77.4511 10.5131 78.6011 9.36308 78.6011 8.01308C78.6011 6.61308 77.4511 5.46309 76.0511 5.46309C74.7011 5.46309 73.5511 6.61308 73.5511 8.01308ZM77.9479 28.5131C77.9479 26.3131 83.7979 18.6131 83.7979 15.4131C83.7979 14.3631 82.8979 12.6631 81.6479 12.6631C80.7979 12.6631 80.1979 13.7131 79.6979 14.5631C77.9479 17.5631 76.0979 20.1631 74.6979 23.4631C74.2479 24.5631 73.8479 25.9131 73.8479 27.2131C73.8479 29.1631 75.0979 31.1631 77.6479 31.1631C80.1979 31.1631 82.5479 28.6131 84.7979 25.4631C84.7479 25.9131 84.6979 26.3131 84.6979 26.7131C84.6979 28.9631 85.998 30.9131 88.748 30.9131C92.548 30.9131 96.248 25.2631 98.198 21.9131C98.598 21.2131 98.798 20.6131 98.798 20.1131C98.798 19.6131 98.598 19.3131 98.248 19.3131C97.9479 19.3131 97.548 19.6131 97.048 20.2631C93.1979 25.7631 91.2479 28.5131 88.748 28.5131C88.4979 28.5131 88.3479 28.3131 88.3479 28.0131C88.3479 25.6631 95.348 15.3131 96.348 14.4631C96.348 14.3631 95.148 12.8631 93.3479 12.8631C92.0479 12.8631 90.5479 13.8631 89.6479 14.8631C87.0979 17.5631 80.5479 28.8131 78.3479 28.8131C78.0979 28.8131 77.9479 28.7631 77.9479 28.5131ZM139.252 30.2131C139.952 23.1631 157.052 4.66308 159.202 4.11309C155.852 8.21308 148.452 19.5131 148.452 26.0631C148.452 28.5631 149.552 30.3631 152.302 30.8631C152.202 30.4131 152.152 29.9631 152.152 29.4631C152.152 21.9131 163.952 5.16308 167.102 1.66308C166.402 0.663085 165.252 0.163085 163.952 0.163085C156.502 0.163085 144.602 15.9631 140.302 22.7131C142.952 16.3631 149.602 7.06308 149.602 3.06308C149.602 1.21308 148.552 0.0630838 147.502 0.0630838C135.402 0.0630838 123.052 31.8131 114.152 31.8131C111.802 31.8131 110.502 30.1631 110.502 28.3131C110.502 24.7631 114.352 19.9631 118.802 19.9631C120.352 19.9631 121.952 20.5631 123.502 21.9631C123.702 21.3131 123.802 20.7631 123.802 20.2131C123.802 17.7131 121.202 16.3631 118.602 16.3631C115.102 16.3631 107.302 20.7131 107.302 27.2631C107.302 31.0131 110.502 33.9631 114.852 33.9631C128.002 33.9631 133.952 8.26309 145.852 2.76308C142.702 7.96308 135.102 17.9631 135.102 24.5631C135.102 27.1131 136.252 29.1631 139.252 30.2131ZM169.75 14.7131C169.8 14.7631 169.8 14.8631 169.8 14.9631C169.8 16.4631 166.35 19.4131 164.95 20.0131C166.8 17.0631 168.95 14.5631 169.6 14.5631C169.7 14.5631 169.75 14.6131 169.75 14.7131ZM163.3 22.9631C166.55 22.4631 171.85 18.7631 171.85 15.5131C171.85 14.0631 170.35 12.4131 168.55 12.4131C167.3 12.4131 165.95 13.0631 164.95 13.7131C160.75 16.2631 158 21.5631 158 25.6631C158 28.7631 159.6 31.2131 163.55 31.2131C167.15 31.2131 170.85 28.0631 174.45 21.9631C174.8 21.3131 174.95 20.7631 174.95 20.3631C174.95 19.7631 174.65 19.4131 174.25 19.4131C173.95 19.4131 173.65 19.8131 173.25 20.2131C169.15 26.6131 166.05 28.9131 164.05 28.9131C162.6 28.9131 162.05 28.2131 162.05 27.0631C162.05 25.9631 162.55 24.5131 163.3 22.9631ZM165.978 33.2631C164.028 36.5131 161.478 40.9631 158.978 40.9631C158.428 40.9631 158.128 40.5631 158.128 39.9631C158.128 38.3131 160.328 35.0131 165.978 33.2631ZM156.278 39.8631C156.278 41.7631 157.478 43.5631 160.078 43.5631C164.328 43.5631 168.878 38.1131 172.628 31.3131C177.478 29.7131 182.228 27.4631 185.578 20.9131C185.628 20.7631 185.678 20.5631 185.678 20.4131C185.678 19.9131 185.278 19.3631 184.628 19.3631C184.278 19.3631 183.928 19.5631 183.728 19.9131C180.778 25.3631 177.828 26.9631 174.178 28.5131C177.878 21.4131 180.928 14.4631 182.878 14.4631H182.928C182.928 14.4631 182.978 14.4631 182.978 14.4131C182.978 14.1131 181.878 12.6631 180.078 12.6631C179.078 12.6631 177.878 13.1131 176.478 14.4631C174.728 16.1631 169.678 26.5631 167.428 30.6631C162.978 31.9131 156.278 34.7631 156.278 39.8631ZM180.778 8.01308C180.778 9.36308 181.928 10.5131 183.278 10.5131C184.678 10.5131 185.828 9.36308 185.828 8.01308C185.828 6.61308 184.678 5.46309 183.278 5.46309C181.928 5.46309 180.778 6.61308 180.778 8.01308ZM185.175 28.5131C185.175 26.3131 191.025 18.6131 191.025 15.4131C191.025 14.3631 190.125 12.6631 188.875 12.6631C188.025 12.6631 187.425 13.7131 186.925 14.5631C185.175 17.5631 183.325 20.1631 181.925 23.4631C181.475 24.5631 181.075 25.9131 181.075 27.2131C181.075 29.1631 182.325 31.1631 184.875 31.1631C187.425 31.1631 189.775 28.6131 192.025 25.4631C191.975 25.9131 191.925 26.3131 191.925 26.7131C191.925 28.9631 193.225 30.9131 195.975 30.9131C199.775 30.9131 203.475 25.2631 205.425 21.9131C205.825 21.2131 206.025 20.6131 206.025 20.1131C206.025 19.6131 205.825 19.3131 205.475 19.3131C205.175 19.3131 204.775 19.6131 204.275 20.2631C200.425 25.7631 198.475 28.5131 195.975 28.5131C195.725 28.5131 195.575 28.3131 195.575 28.0131C195.575 25.6631 202.575 15.3131 203.575 14.4631C203.575 14.3631 202.375 12.8631 200.575 12.8631C199.275 12.8631 197.775 13.8631 196.875 14.8631C194.325 17.5631 187.775 28.8131 185.575 28.8131C185.325 28.8131 185.175 28.7631 185.175 28.5131Z" fill="#AB4448"/>
</svg>
